<?xml version="1.0" encoding="UTF-8"?>
<!DOCTYPE svg PUBLIC "-//W3C//DTD SVG 1.0//EN" "http://www.w3.org/TR/2001/REC-SVG-20010904/DTD/svg10.dtd">
<!-- Creator: CorelDRAW -->
<svg xmlns="http://www.w3.org/2000/svg" xml:space="preserve" width="29mm" height="29mm" version="1.0" style="shape-rendering:geometricPrecision; text-rendering:geometricPrecision; image-rendering:optimizeQuality; fill-rule:evenodd; clip-rule:evenodd"
viewBox="0 0 2900 2900"
 xmlns:xlink="http://www.w3.org/1999/xlink"
 xmlns:xodm="http://www.corel.com/coreldraw/odm/2003">
 <defs>
  <style type="text/css">
   <![CDATA[
    .str0 {stroke:#A8518A;stroke-width:20;stroke-miterlimit:22.9256}
    .fil2 {fill:#FEFEFE}
    .fil1 {fill:#727376}
    .fil4 {fill:#847059}
    .fil0 {fill:#A8518A}
    .fil3 {fill:url(#id0)}
   ]]>
  </style>
  <linearGradient id="id0" gradientUnits="userSpaceOnUse" x1="792.22" y1="844.4" x2="2050.07" y2="844.4">
   <stop offset="0" style="stop-opacity:1; stop-color:#DEB995"/>
   <stop offset="0.65098" style="stop-opacity:1; stop-color:#EEDBC9"/>
   <stop offset="1" style="stop-opacity:1; stop-color:#FEFEFE"/>
  </linearGradient>
 </defs>
 <g id="Capa_x0020_1">
  <metadata id="CorelCorpID_0Corel-Layer"/>
  <circle class="fil0 str0" cx="1450" cy="1450" r="1404.09"/>
  <g id="_1417346197104">
   <path class="fil1" d="M1442.23 2554.93l-381.81 -1127.66c-343.48,184.22 -587.29,468.15 -579.76,1003.35 439.17,472.29 1527.5,473.48 1938.86,-15.03 -3.31,-415.56 -168.51,-765 -591.12,-1009.4l-386.17 1148.74z"/>
   <path class="fil2" d="M1442.23 2554.93l-392.53 -1187.54c253.95,143.69 517.09,160.27 794.19,-16.38l-401.66 1203.92z"/>
   <ellipse class="fil3" cx="1421.14" cy="844.4" rx="628.92" ry="648.02"/>
   <path class="fil4" d="M847.45 599.74c-62.98,25.34 -74.44,-4.35 -58.82,-62.94 342.01,-628.52 1433.68,-626.69 1301.65,520.76 -3.87,3.76 -9.76,4.83 -18.56,2.02 -75.87,-456.59 -358.91,-613.3 -864.13,-448.46 -112.56,-67.55 -233.32,-65.24 -360.14,-11.38z"/>
  </g>
 </g>
</svg>
